<svg xmlns="http://www.w3.org/2000/svg" viewBox="0 0 64 64"><rect width="64" height="64" rx="16" fill="#050505"/><path fill="#25F4EE" d="M38.7 8h7.2c.4 4.5 2.7 8.2 7.1 10.2v7.4c-2.8-.1-5.4-.9-7.7-2.4v15c0 10-6.6 17.7-16.5 17.7-8.1 0-14.7-5.9-14.7-14 0-8.2 6.4-14.2 14.8-14.2 1 0 2 .1 2.9.3v7.7c-.9-.3-1.8-.5-2.8-.5-3.8 0-6.6 2.8-6.6 6.5 0 3.8 2.9 6.5 6.6 6.5 4 0 6.6-2.7 6.6-7.7V8h3.1z" opacity=".9"/><path fill="#FE2C55" d="M42.3 11.3c1.4 3.5 3.9 6.1 7.7 7.8v7.3c-2.8-.1-5.4-.9-7.7-2.4v15c0 10-6.6 17.7-16.5 17.7-4.4 0-8.4-1.7-11.1-4.5 2.7 2.3 6.2 3.7 10 3.7 9.9 0 16.5-7.7 16.5-17.7v-15c2.3 1.5 4.9 2.3 7.7 2.4v-6.3c-3.5-1.5-5.7-4.3-6.6-8z" opacity=".9"/><path fill="#fff" d="M35.6 8h7.2c.4 4.5 2.7 8.2 7.1 10.2v7.4c-2.8-.1-5.4-.9-7.7-2.4v15c0 10-6.6 17.7-16.5 17.7-8.1 0-14.7-5.9-14.7-14 0-8.2 6.4-14.2 14.8-14.2 1 0 2 .1 2.9.3v7.7c-.9-.3-1.8-.5-2.8-.5-3.8 0-6.6 2.8-6.6 6.5 0 3.8 2.9 6.5 6.6 6.5 4 0 6.6-2.7 6.6-7.7V8h3.1z"/></svg>