<svg xmlns="http://www.w3.org/2000/svg" viewBox="0 0 64 64"><defs><linearGradient id="g" x1="0" y1="0" x2="1" y2="1"><stop offset="0" stop-color="#45f56e"/><stop offset="1" stop-color="#10b84a"/></linearGradient></defs><circle cx="32" cy="32" r="30" fill="url(#g)"/><path fill="#fff" d="M45.6 38.8c-.7 2-3.5 3.7-5.5 4.1-1.5.3-3.3.5-9.5-2.1-8-3.3-13.2-11.5-13.6-12-.4-.6-3.2-4.3-3.2-8.2s2-5.8 2.8-6.6c.7-.8 1.6-1 2.1-1h1.5c.5 0 1.1-.1 1.8 1.4.7 1.7 2.3 5.7 2.5 6.1.2.4.3.9.1 1.4-.3.6-.5.9-.9 1.4-.4.5-.8 1-1.1 1.3-.4.4-.8.8-.3 1.6.5.8 2.1 3.5 4.5 5.6 3.1 2.8 5.7 3.6 6.5 4 .8.3 1.3.3 1.8-.2.5-.6 2.1-2.4 2.7-3.2.6-.8 1.1-.7 1.9-.4.8.3 5.1 2.4 6 2.8.9.4 1.5.6 1.7.9.2.4.2 2.2-.4 4z"/><path fill="#fff" d="M32 6C17.6 6 6 17.6 6 32c0 4.9 1.4 9.5 3.7 13.4L7 58l12.9-2.7C23.6 57 27.7 58 32 58c14.4 0 26-11.6 26-26S46.4 6 32 6zm0 47.5c-4 0-7.7-1.1-10.9-3l-.8-.5-7.7 1.6 1.6-7.5-.5-.8C11.6 40 10.5 36.1 10.5 32 10.5 20.1 20.1 10.5 32 10.5S53.5 20.1 53.5 32 43.9 53.5 32 53.5z" opacity=".28"/></svg>