<svg xmlns="http://www.w3.org/2000/svg" viewBox="0 0 400 400"><defs><radialGradient id="g" cx="50%" cy="45%" r="65%"><stop stop-color="#fff6cf"/><stop offset=".34" stop-color="#c9a56a"/><stop offset=".72" stop-color="#5c3516"/><stop offset="1" stop-color="#070707"/></radialGradient></defs><rect width="400" height="400" rx="52" fill="#050505"/><circle cx="200" cy="182" r="138" fill="url(#g)"/><path d="M121 190c20-78 138-78 158 0 19 71-32 116-79 116s-98-45-79-116z" fill="#f4dba4"/><path d="M142 176c-23-22-29-52-9-82 17 21 43 30 67 30s50-9 67-30c20 30 14 60-9 82 33 19 43 52 30 85-28-3-52 15-88 15s-60-18-88-15c-13-33-3-66 30-85z" fill="#98602e"/><circle cx="169" cy="200" r="10" fill="#111"/><circle cx="231" cy="200" r="10" fill="#111"/><path d="M182 235c12 12 24 12 36 0" fill="none" stroke="#111" stroke-width="7" stroke-linecap="round"/><text x="200" y="360" text-anchor="middle" fill="#fff" font-family="Arial Black" font-size="34">Aslan</text></svg>