<svg xmlns="http://www.w3.org/2000/svg" viewBox="0 0 64 64"><circle cx="32" cy="32" r="30" fill="#fff"/><path fill="#4285F4" d="M57 32.7c0-1.8-.2-3.5-.5-5.2H32v10h14c-.6 3.2-2.4 6-5.1 7.8v6.5h8.3C54.1 47.3 57 40.6 57 32.7z"/><path fill="#34A853" d="M32 58c7 0 12.9-2.3 17.2-6.2l-8.3-6.5c-2.3 1.5-5.2 2.4-8.9 2.4-6.8 0-12.5-4.6-14.6-10.7H8.8v6.7C13 52.2 21.8 58 32 58z"/><path fill="#FBBC05" d="M17.4 37c-.5-1.5-.8-3.2-.8-5s.3-3.5.8-5v-6.7H8.8A25.8 25.8 0 0 0 6 32c0 4.2 1 8.2 2.8 11.7l8.6-6.7z"/><path fill="#EA4335" d="M32 16.3c3.8 0 7.2 1.3 9.9 3.9l7.4-7.4C44.9 8.6 39 6 32 6 21.8 6 13 11.8 8.8 20.3l8.6 6.7C19.5 20.9 25.2 16.3 32 16.3z"/></svg>